<svg width="480" height="80" viewBox="0 0 480 80" fill="none" xmlns="http://www.w3.org/2000/svg">
  <path d="M142.848 20.336V65.264H131.904V38.32L121.856 65.264H113.024L102.912 38.256V65.264H91.968V20.336H104.896L117.504 51.44L129.984 20.336H142.848Z" fill="#5A4AF4"/>
  <path d="M165.694 65.776C162.195 65.776 159.038 65.0293 156.222 63.536C153.449 62.0427 151.251 59.9093 149.63 57.136C148.051 54.3627 147.262 51.12 147.262 47.408C147.262 43.7387 148.073 40.5173 149.694 37.744C151.315 34.928 153.534 32.7733 156.35 31.28C159.166 29.7867 162.323 29.04 165.822 29.04C169.321 29.04 172.478 29.7867 175.294 31.28C178.11 32.7733 180.329 34.928 181.95 37.744C183.571 40.5173 184.382 43.7387 184.382 47.408C184.382 51.0773 183.55 54.32 181.886 57.136C180.265 59.9093 178.025 62.0427 175.166 63.536C172.35 65.0293 169.193 65.776 165.694 65.776ZM165.694 56.304C167.785 56.304 169.555 55.536 171.006 54C172.499 52.464 173.246 50.2667 173.246 47.408C173.246 44.5493 172.521 42.352 171.07 40.816C169.662 39.28 167.913 38.512 165.822 38.512C163.689 38.512 161.918 39.28 160.51 40.816C159.102 42.3093 158.398 44.5067 158.398 47.408C158.398 50.2667 159.081 52.464 160.446 54C161.854 55.536 163.603 56.304 165.694 56.304Z" fill="#5A4AF4"/>
  <path d="M204.972 55.024L212.716 29.552H224.364L211.692 65.264H198.188L185.516 29.552H197.228L204.972 55.024Z" fill="#5A4AF4"/>
  <path d="M233.195 25.84C231.275 25.84 229.696 25.2853 228.459 24.176C227.264 23.024 226.667 21.616 226.667 19.952C226.667 18.2453 227.264 16.8373 228.459 15.728C229.696 14.576 231.275 14 233.195 14C235.072 14 236.608 14.576 237.803 15.728C239.04 16.8373 239.659 18.2453 239.659 19.952C239.659 21.616 239.04 23.024 237.803 24.176C236.608 25.2853 235.072 25.84 233.195 25.84ZM238.635 29.552V65.264H227.691V29.552H238.635Z" fill="#5A4AF4"/>
  <path d="M278.95 46.832C278.95 47.856 278.886 48.9227 278.758 50.032H253.99C254.16 52.2507 254.864 53.9573 256.102 55.152C257.382 56.304 258.939 56.88 260.774 56.88C263.504 56.88 265.403 55.728 266.47 53.424H278.118C277.52 55.7707 276.432 57.8827 274.854 59.76C273.318 61.6373 271.376 63.1093 269.03 64.176C266.683 65.2427 264.059 65.776 261.158 65.776C257.659 65.776 254.544 65.0293 251.814 63.536C249.083 62.0427 246.95 59.9093 245.414 57.136C243.878 54.3627 243.11 51.12 243.11 47.408C243.11 43.696 243.856 40.4533 245.35 37.68C246.886 34.9067 249.019 32.7733 251.75 31.28C254.48 29.7867 257.616 29.04 261.158 29.04C264.614 29.04 267.686 29.7653 270.374 31.216C273.062 32.6667 275.152 34.736 276.646 37.424C278.182 40.112 278.95 43.248 278.95 46.832ZM267.75 43.952C267.75 42.0747 267.11 40.5813 265.83 39.472C264.55 38.3627 262.95 37.808 261.03 37.808C259.195 37.808 257.638 38.3413 256.358 39.408C255.12 40.4747 254.352 41.9893 254.054 43.952H267.75Z" fill="#5A4AF4"/>
  <path d="M313.216 20.336V29.104H294.912V38.576H308.608V47.088H294.912V65.264H283.968V20.336H313.216Z" fill="#1EA5FC"/>
  <path d="M323.192 25.84C321.272 25.84 319.693 25.2853 318.456 24.176C317.261 23.024 316.664 21.616 316.664 19.952C316.664 18.2453 317.261 16.8373 318.456 15.728C319.693 14.576 321.272 14 323.192 14C325.069 14 326.605 14.576 327.8 15.728C329.037 16.8373 329.656 18.2453 329.656 19.952C329.656 21.616 329.037 23.024 327.8 24.176C326.605 25.2853 325.069 25.84 323.192 25.84ZM328.632 29.552V65.264H317.688V29.552H328.632Z" fill="#1EA5FC"/>
  <path d="M357.043 29.168C361.224 29.168 364.552 30.5333 367.027 33.264C369.544 35.952 370.803 39.664 370.803 44.4V65.264H359.923V45.872C359.923 43.4827 359.304 41.6267 358.067 40.304C356.83 38.9813 355.166 38.32 353.075 38.32C350.984 38.32 349.32 38.9813 348.083 40.304C346.846 41.6267 346.227 43.4827 346.227 45.872V65.264H335.283V29.552H346.227V34.288C347.336 32.7093 348.83 31.472 350.707 30.576C352.584 29.6373 354.696 29.168 357.043 29.168Z" fill="#1EA5FC"/>
  <path d="M374.952 47.344C374.952 43.6747 375.635 40.4533 377 37.68C378.408 34.9067 380.307 32.7733 382.696 31.28C385.085 29.7867 387.752 29.04 390.696 29.04C393.043 29.04 395.176 29.5307 397.096 30.512C399.059 31.4933 400.595 32.816 401.704 34.48V17.904H412.648V65.264H401.704V60.144C400.68 61.8507 399.208 63.216 397.288 64.24C395.411 65.264 393.213 65.776 390.696 65.776C387.752 65.776 385.085 65.0293 382.696 63.536C380.307 62 378.408 59.8453 377 57.072C375.635 54.256 374.952 51.0133 374.952 47.344ZM401.704 47.408C401.704 44.6773 400.936 42.5227 399.4 40.944C397.907 39.3653 396.072 38.576 393.896 38.576C391.72 38.576 389.864 39.3653 388.328 40.944C386.835 42.48 386.088 44.6133 386.088 47.344C386.088 50.0747 386.835 52.2507 388.328 53.872C389.864 55.4507 391.72 56.24 393.896 56.24C396.072 56.24 397.907 55.4507 399.4 53.872C400.936 52.2933 401.704 50.1387 401.704 47.408Z" fill="#1EA5FC"/>
  <path d="M452.95 46.832C452.95 47.856 452.886 48.9227 452.758 50.032H427.99C428.16 52.2507 428.864 53.9573 430.102 55.152C431.382 56.304 432.939 56.88 434.774 56.88C437.504 56.88 439.403 55.728 440.47 53.424H452.118C451.52 55.7707 450.432 57.8827 448.854 59.76C447.318 61.6373 445.376 63.1093 443.03 64.176C440.683 65.2427 438.059 65.776 435.158 65.776C431.659 65.776 428.544 65.0293 425.814 63.536C423.083 62.0427 420.95 59.9093 419.414 57.136C417.878 54.3627 417.11 51.12 417.11 47.408C417.11 43.696 417.856 40.4533 419.35 37.68C420.886 34.9067 423.019 32.7733 425.75 31.28C428.48 29.7867 431.616 29.04 435.158 29.04C438.614 29.04 441.686 29.7653 444.374 31.216C447.062 32.6667 449.152 34.736 450.646 37.424C452.182 40.112 452.95 43.248 452.95 46.832ZM441.75 43.952C441.75 42.0747 441.11 40.5813 439.83 39.472C438.55 38.3627 436.95 37.808 435.03 37.808C433.195 37.808 431.638 38.3413 430.358 39.408C429.12 40.4747 428.352 41.9893 428.054 43.952H441.75Z" fill="#1EA5FC"/>
  <path d="M468.387 35.504C469.667 33.5413 471.267 32.0053 473.187 30.896C475.107 29.744 477.24 29.168 479.587 29.168V40.752H476.579C473.848 40.752 471.8 41.3493 470.435 42.544C469.07 43.696 468.387 45.744 468.387 48.688V65.264H457.443V29.552H468.387V35.504Z" fill="#1EA5FC"/>
  <path d="M18.512 31.5256L53.5601 9.536C60.1937 5.3744 68.8001 10.1592 68.8001 18.0104V61.9896C68.8001 69.84 60.1937 74.6256 53.5601 70.464L18.512 48.4744C12.2728 44.5592 12.2728 35.4408 18.512 31.5256Z" fill="#1EA5FC"/>
  <path d="M61.4879 31.5256L26.44 9.536C19.8064 5.3744 11.2 10.1592 11.2 18.0104V61.9896C11.2 69.84 19.8064 74.6256 26.44 70.464L61.4879 48.4744C67.7271 44.5592 67.7271 35.4408 61.4879 31.5256Z" fill="#5A4AF4"/>
</svg>
