<svg width="286" height="80" viewBox="0 0 286 80" fill="none" xmlns="http://www.w3.org/2000/svg">
  <path d="M113.216 65.28C108.992 65.28 105.109 64.2987 101.568 62.336C98.0694 60.3733 95.2747 57.6427 93.1841 54.144C91.1361 50.6027 90.1121 46.6347 90.1121 42.24C90.1121 37.8453 91.1361 33.8987 93.1841 30.4C95.2747 26.9013 98.0694 24.1707 101.568 22.208C105.109 20.2453 108.992 19.264 113.216 19.264C117.44 19.264 121.301 20.2453 124.8 22.208C128.341 24.1707 131.115 26.9013 133.12 30.4C135.168 33.8987 136.192 37.8453 136.192 42.24C136.192 46.6347 135.168 50.6027 133.12 54.144C131.072 57.6427 128.299 60.3733 124.8 62.336C121.301 64.2987 117.44 65.28 113.216 65.28ZM113.216 55.296C116.8 55.296 119.659 54.1013 121.792 51.712C123.968 49.3227 125.056 46.1653 125.056 42.24C125.056 38.272 123.968 35.1147 121.792 32.768C119.659 30.3787 116.8 29.184 113.216 29.184C109.589 29.184 106.688 30.3573 104.512 32.704C102.379 35.0507 101.312 38.2293 101.312 42.24C101.312 46.208 102.379 49.3867 104.512 51.776C106.688 54.1227 109.589 55.296 113.216 55.296Z" fill="#5A4AF4"/>
  <path d="M162.761 28.736C166.942 28.736 170.27 30.1013 172.745 32.832C175.262 35.52 176.521 39.232 176.521 43.968V64.832H165.641V45.44C165.641 43.0507 165.022 41.1947 163.785 39.872C162.547 38.5493 160.883 37.888 158.793 37.888C156.702 37.888 155.038 38.5493 153.801 39.872C152.563 41.1947 151.945 43.0507 151.945 45.44V64.832H141.001V29.12H151.945V33.856C153.054 32.2773 154.547 31.04 156.425 30.144C158.302 29.2053 160.414 28.736 162.761 28.736Z" fill="#5A4AF4"/>
  <path d="M212.216 20.336V29.104H193.912V38.576H207.608V47.088H193.912V65.264H182.968V20.336H212.216Z" fill="#1EA5FC"/>
  <path d="M227.632 17.904V65.264H216.688V17.904H227.632Z" fill="#1EA5FC"/>
  <path d="M239.787 25.84C237.867 25.84 236.288 25.2853 235.051 24.176C233.856 23.024 233.259 21.616 233.259 19.952C233.259 18.2453 233.856 16.8373 235.051 15.728C236.288 14.576 237.867 14 239.787 14C241.664 14 243.2 14.576 244.395 15.728C245.632 16.8373 246.251 18.2453 246.251 19.952C246.251 21.616 245.632 23.024 244.395 24.176C243.2 25.2853 241.664 25.84 239.787 25.84ZM245.227 29.552V65.264H234.283V29.552H245.227Z" fill="#1EA5FC"/>
  <path d="M272.998 65.264L266.15 55.344L260.39 65.264H248.55L260.326 47.024L248.23 29.552H260.518L267.366 39.408L273.126 29.552H284.966L272.998 47.536L285.286 65.264H272.998Z" fill="#1EA5FC"/>
  <path d="M18.512 31.5256L53.5601 9.536C60.1937 5.3744 68.8001 10.1592 68.8001 18.0104V61.9896C68.8001 69.84 60.1937 74.6256 53.5601 70.464L18.512 48.4744C12.2728 44.5592 12.2728 35.4408 18.512 31.5256Z" fill="#1EA5FC"/>
  <path d="M61.4879 31.5256L26.44 9.536C19.8064 5.3744 11.2 10.1592 11.2 18.0104V61.9896C11.2 69.84 19.8064 74.6256 26.44 70.464L61.4879 48.4744C67.7271 44.5592 67.7271 35.4408 61.4879 31.5256Z" fill="#5A4AF4"/>
</svg>
